<svg width="13" height="13" viewBox="0 0 13 13" fill="none" xmlns="http://www.w3.org/2000/svg">
<g id="Group 2683">
<path id="Vector" d="M9.99708 0.480709C9.87712 0.536692 9.78915 0.664655 9.77315 0.776623C9.73316 1.16051 9.85313 1.2165 10.7409 1.25648L11.5646 1.29647L10.0771 2.99998C9.2613 3.9357 8.50152 4.79146 8.38955 4.90342L8.18961 5.10337L6.52609 3.77575C5.26246 2.76804 4.81459 2.45613 4.67063 2.47213C4.39871 2.50412 0.0799674 6.57494 0.0719697 6.79887C0.0479767 7.19876 0.135951 7.33472 0.41587 7.33472C0.495847 7.33472 1.44757 6.49496 2.52726 5.47126C3.60694 4.45555 4.55067 3.57581 4.63065 3.51983C4.73461 3.43985 4.87058 3.51183 5.4784 4.00768C7.36585 5.52724 7.97367 5.9991 8.14162 6.07908C8.37356 6.18305 8.42954 6.12707 10.157 4.17563C10.8928 3.33588 11.6446 2.49612 11.8206 2.29618L12.1485 1.93629L12.1565 2.66407C12.1565 3.49583 12.2444 3.67978 12.5963 3.63979C12.9802 3.5998 13.0202 3.39986 12.9882 1.95228C12.9562 0.936576 12.9242 0.632665 12.8283 0.536692C12.6683 0.368741 10.301 0.320755 9.99708 0.480709Z" fill="#4A4A4A"/>
<path id="Vector_2" d="M10.7968 5.31131C10.7329 5.3353 10.6529 5.39929 10.6209 5.44727C10.5889 5.49526 10.5569 7.08679 10.5569 8.99024C10.5569 12.3253 10.5649 12.4532 10.7089 12.5332C10.9328 12.6532 12.7403 12.6372 12.8602 12.5172C12.9802 12.3973 12.9962 5.60722 12.8762 5.41528C12.8203 5.31931 12.5963 5.29532 11.8605 5.27932C11.3407 5.27132 10.8608 5.28732 10.7968 5.31131Z" fill="#4A4A4A"/>
<path id="Vector_3" d="M3.61495 6.63093C3.54297 6.70291 3.51898 7.47068 3.51898 9.59007C3.51898 12.3333 3.52698 12.4532 3.67094 12.5332C3.89487 12.6532 5.70235 12.6372 5.82231 12.5172C5.95827 12.3813 5.95827 6.76689 5.82231 6.63093C5.75833 6.56695 5.39844 6.53495 4.71863 6.53495C4.03883 6.53495 3.67894 6.56695 3.61495 6.63093Z" fill="#4A4A4A"/>
<path id="Vector_4" d="M7.18192 7.8226C7.04596 7.89457 7.03796 8.09452 7.03796 10.1739C7.03796 12.3413 7.04596 12.4532 7.18992 12.5332C7.43785 12.6612 9.13335 12.6372 9.3253 12.5012C9.46926 12.3893 9.47725 12.2693 9.47725 10.1739C9.47725 8.07852 9.46926 7.95856 9.3253 7.84659C9.13335 7.71063 7.40586 7.68664 7.18192 7.8226Z" fill="#4A4A4A"/>
<path id="Vector_5" d="M0.127963 9.06224C0.0159953 9.16621 0 9.43813 0 10.8137C0 12.3493 0.00799767 12.4533 0.151956 12.5332C0.23993 12.5732 0.735786 12.6132 1.26363 12.6132C2.0554 12.6132 2.23935 12.5892 2.32732 12.4772C2.4153 12.3813 2.43929 11.9974 2.45529 10.9097C2.47128 9.5261 2.4153 9.12622 2.21536 8.99826C2.15937 8.96627 1.69551 8.93427 1.18366 8.93427C0.439872 8.93427 0.223935 8.95827 0.127963 9.06224Z" fill="#4A4A4A"/>
</g>
</svg>
