<svg width="13" height="15" viewBox="0 0 13 15" fill="none" xmlns="http://www.w3.org/2000/svg">
<g id="Subtract">
<path d="M3.40236 3.03371H7.76983V2.47191H3.40236V3.03371Z" fill="#4A4A4A"/>
<path d="M3.40236 4.08427C3.40236 3.94944 3.41854 3.82023 3.44011 3.80337C3.45628 3.7809 4.84201 3.76405 6.51351 3.76405H9.54916V4.32584H3.40236V4.08427Z" fill="#4A4A4A"/>
<path d="M3.41315 5.3764L3.42932 5.64607L6.49194 5.66292L9.54916 5.67416V5.11236H3.39697L3.41315 5.3764Z" fill="#4A4A4A"/>
<path d="M6.59969 9.41707C6.64269 9.40508 8.26207 8.21981 8.27034 8.19412C8.27364 8.18213 7.63847 8.17699 6.51367 8.17699C5.51459 8.17699 4.75039 8.18384 4.75039 8.19241C4.75039 8.21125 6.30691 9.35712 6.38631 9.39651C6.44751 9.42734 6.53187 9.4342 6.59969 9.41707Z" fill="#4A4A4A"/>
<path d="M4.93239 8.75882C4.87609 8.71766 4.81789 8.6751 4.76197 8.63431C4.5734 8.49557 4.4113 8.38253 4.40303 8.38253C4.39145 8.38253 4.38649 8.76106 4.38649 9.47873C4.38649 10.0816 4.39145 10.5749 4.39972 10.5732C4.40634 10.5732 4.494 10.4516 4.5949 10.3043C4.69415 10.157 4.92076 9.82814 5.0961 9.57465C5.27143 9.32286 5.40873 9.11047 5.40046 9.10191C5.39384 9.09506 5.32437 9.04367 5.24662 8.98715C5.19173 8.94845 5.06758 8.85767 4.93239 8.75882Z" fill="#4A4A4A"/>
<path d="M8.62266 10.5715C8.63259 10.5749 8.63589 10.1536 8.63424 9.48558C8.63093 8.77648 8.62266 8.39281 8.61274 8.38767C8.60447 8.38595 8.54823 8.42021 8.48868 8.46474C8.42913 8.50928 8.20417 8.67542 7.98748 8.83471C7.61035 9.11219 7.59546 9.12418 7.61696 9.16015C7.69471 9.28176 8.60943 10.5681 8.62266 10.5715Z" fill="#4A4A4A"/>
<path d="M6.5054 9.76991C6.34991 9.76991 6.22751 9.71338 5.9612 9.5147C5.83052 9.41878 5.71474 9.33657 5.7015 9.33143C5.68165 9.32286 5.61218 9.42221 4.93565 10.3951C4.87364 10.4834 4.80368 10.5834 4.74572 10.6663C4.70474 10.7249 4.66976 10.7749 4.64784 10.8062C4.57175 10.9124 4.55686 10.9449 4.57505 10.9552C4.58829 10.962 5.46497 10.9672 6.5236 10.9655C8.22237 10.9603 8.44733 10.9569 8.44567 10.9346C8.44402 10.9141 7.38373 9.39309 7.3308 9.33657C7.32419 9.328 7.20343 9.40679 7.06449 9.50956C6.78329 9.71852 6.67247 9.76991 6.5054 9.76991Z" fill="#4A4A4A"/>
<path fill-rule="evenodd" clip-rule="evenodd" d="M1.38578 0.0898877C1.3103 0.168539 1.29951 0.539326 1.29951 3.34831V6.51685H0.717183C0.334356 6.51685 0.113287 6.53933 0.0701512 6.58427C-0.0269036 6.68539 -0.0215115 12.6573 0.0755432 12.7416C0.113287 12.7753 0.399059 12.8146 0.711791 12.8202L1.27255 12.8371L1.28873 13.8202C1.29951 14.7416 1.3049 14.809 1.41274 14.8989C1.52058 14.9944 1.8441 15 6.50811 15C11.4202 15 11.4903 15 11.5981 14.8876C11.6952 14.7865 11.7059 14.7022 11.7059 13.7921V12.809H12.299C12.8275 12.809 12.8922 12.7978 12.9461 12.7022C12.9784 12.6292 13 11.5787 13 9.67977C13 7.13483 12.9892 6.75281 12.9137 6.64045C12.8382 6.52809 12.7897 6.51685 12.2667 6.51685H11.7059V2.33146L9.46829 0H5.46747C1.90341 0 1.46127 0.0112359 1.38578 0.0898877ZM9.11781 1.12921C9.11781 1.67978 9.1879 1.94944 9.39819 2.2191C9.66239 2.54494 9.9266 2.6573 10.5359 2.68539L11.0589 2.70787V6.51685H1.94654V0.674157H9.11781V1.12921ZM11.0589 14.3258H1.94654V12.809H11.0589V14.3258ZM4.08048 8.27805C4.13672 8.10163 4.26243 7.9646 4.43446 7.89095L4.52709 7.85156L8.53003 7.86012L8.60943 7.8978C8.72687 7.95604 8.85755 8.09135 8.91213 8.21639L8.9601 8.32258V10.8404L8.91544 10.938C8.85424 11.0734 8.75334 11.1813 8.62266 11.2481L8.51349 11.3029H4.494L4.39476 11.2498C4.27731 11.1864 4.1516 11.0528 4.10033 10.9398L4.06393 10.8575L4.05897 9.6089C4.05566 8.51099 4.05732 8.34999 4.08048 8.27805Z" fill="#4A4A4A"/>
</g>
</svg>
