<svg width="19" height="17" viewBox="0 0 19 17" fill="none" xmlns="http://www.w3.org/2000/svg">
<g id="Vector">
<path d="M8.80348 0.564679C8.2061 0.698304 7.66374 1.17778 7.45938 1.75551C7.08602 2.82843 7.77379 3.97996 8.90959 4.17253C10.2655 4.40048 11.3895 3.05638 10.9336 1.75551C10.7214 1.1542 10.1515 0.662933 9.53448 0.552889C9.24365 0.497867 9.08252 0.501797 8.80348 0.564679Z" fill="#4A4A4A"/>
<path d="M0.298689 4.29437C0.216157 4.34153 0.113974 4.44371 0.0746724 4.51839C0.00393013 4.64808 0 4.87996 0 10.3586V16.0612L0.0903929 16.1909C0.137554 16.2655 0.239738 16.3599 0.31441 16.4031L0.451964 16.4856H17.941L18.0786 16.4031C18.1532 16.3599 18.2554 16.2655 18.3026 16.1909L18.393 16.0612V10.3664C18.393 3.9721 18.4166 4.48695 18.0982 4.30223L17.9332 4.20398H13.4803V5.42231H17.1746V6.34982L13.217 9.17558C11.0397 10.7319 9.23186 12.0013 9.20042 12.0013C9.14147 12.0013 8.10392 11.2664 3.25021 7.80004L1.21834 6.34589V5.42231H4.91266V4.20398H0.451964L0.298689 4.29437ZM3.28165 9.32886C4.21309 9.99305 4.97947 10.5511 4.98733 10.5747C4.99519 10.5983 4.15021 11.4668 3.10873 12.5044L1.21834 14.3909V7.85113L1.40698 7.98869C1.50917 8.06336 2.35414 8.66467 3.28165 9.32886ZM17.1746 11.1249V14.3869L15.2843 12.5005C14.2428 11.4629 13.4017 10.5944 13.4096 10.5747C13.4135 10.5511 14.2192 9.96947 15.1899 9.27384C16.1646 8.58214 17.0017 7.98083 17.0567 7.93759C17.1118 7.89829 17.1589 7.86292 17.1668 7.86292C17.1707 7.85899 17.1746 9.32886 17.1746 11.1249ZM7.6323 12.4376L9.20042 13.5577L10.7725 12.4297L12.3485 11.3057L16.2904 15.2476H2.10262L4.06768 13.2826C5.14846 12.2018 6.0406 11.3175 6.04846 11.3175C6.05632 11.3175 6.76767 11.8206 7.6323 12.4376Z" fill="#4A4A4A"/>
<path d="M7.16462 4.90747C6.94453 4.98607 6.67335 5.16293 6.5358 5.30834C6.44147 5.41445 5.26637 7.43847 5.26637 7.50135C5.26637 7.53279 9.10217 10.2996 9.18863 10.3232C9.23186 10.3389 13.1266 7.54851 13.1266 7.50135C13.1266 7.47777 12.8594 6.99829 12.5371 6.43236C11.8965 5.3162 11.7747 5.16293 11.3659 4.96249L11.1419 4.85245L9.25544 4.84459C7.49475 4.8328 7.35719 4.84066 7.16462 4.90747Z" fill="#4A4A4A"/>
</g>
</svg>
