<svg width="17" height="17" viewBox="0 0 17 17" fill="" xmlns="http://www.w3.org/2000/svg">
<g id="Vector">
<path d="M3.05113 0.388169C2.30722 0.948858 1.03501 2.21041 0.474381 2.94362L0 3.57978V9.65032C0 15.1602 0.0215628 15.7316 0.183283 15.861C0.323441 15.9796 1.34767 16.0228 5.43382 16.0659L10.5118 16.1306L11.2234 16.508C12.3986 17.1549 13.6708 17.1657 14.9107 16.5295C16.474 15.7424 17.3257 13.8231 16.8836 12.0764C16.474 10.459 15.2341 9.36997 13.5091 9.10041L13.0455 9.02493V4.64725C13.0455 1.38016 13.0131 0.226432 12.9161 0.12939C12.8191 0.0323474 11.6223 0 8.18307 0H3.57942L3.05113 0.388169ZM12.0212 9.11119L11.3851 9.45623C10.7275 9.80127 10.307 10.1463 9.77871 10.7609L9.48762 11.106H6.38258C4.10771 11.106 3.2452 11.1383 3.14816 11.2353C2.94332 11.4402 2.99722 11.7206 3.25598 11.9039C3.46082 12.0548 3.94599 12.0764 6.32867 12.0764C9.41215 12.0764 9.22886 12.0332 9.09949 12.7125L9.0348 13.0468H6.18851C3.7627 13.0468 3.33145 13.0684 3.19129 13.2193C2.98644 13.4134 2.97566 13.5212 3.1266 13.8124C3.23441 14.0064 3.38535 14.0172 6.19929 14.0172H9.16417L9.3259 14.4162C9.41215 14.6426 9.4984 14.8583 9.51996 14.9122C9.53074 14.9553 7.63322 14.9984 5.30444 15.02L1.07814 15.0416V3.98952H2.40425C3.28832 3.98952 3.77348 3.94639 3.85974 3.86013C3.94599 3.77387 3.98911 3.27787 3.98911 2.35058V0.970423L8.01057 0.991988L12.0212 1.02434V9.11119ZM3.01879 2.42606V3.01909H1.78971L2.3719 2.42606C2.69535 2.10258 2.97566 1.83302 2.98644 1.83302C3.00801 1.83302 3.01879 2.10258 3.01879 2.42606ZM14.3285 10.3404C14.9646 10.6747 15.3419 11.0305 15.6869 11.6666C15.9672 12.1519 16.0104 12.3567 16.0104 13.0468C16.0104 13.7477 15.9672 13.931 15.6761 14.4485C14.846 15.9257 13.0778 16.4541 11.6331 15.6669C10.652 15.1386 10.1022 14.2113 10.0914 13.036C10.0698 11.3108 11.5576 9.91988 13.2934 10.0816C13.6277 10.1032 14.102 10.2326 14.3285 10.3404Z" fill=""/>
<path d="M5.66023 2.22119C5.1535 2.50153 4.94865 2.71718 4.73303 3.18083C4.47427 3.74152 4.48506 4.2483 4.75459 4.84133C4.87319 5.11089 4.92709 5.34811 4.88397 5.39124C4.84084 5.42359 4.57131 5.63924 4.29099 5.85489C3.52551 6.4587 3.11582 7.37521 3.04035 8.60442C2.9541 10.1463 2.663 10.0277 6.51196 10.0277C9.28277 10.0277 9.80028 10.0061 9.91887 9.86597C10.0159 9.75814 10.0375 9.39154 10.0051 8.64755C9.97278 7.77417 9.91887 7.49382 9.6709 6.98705C9.39058 6.41557 8.89464 5.87645 8.32323 5.49906L8.07526 5.33733L8.29088 4.85211C8.5712 4.2483 8.5712 3.74152 8.31245 3.17005C7.99979 2.47997 7.43915 2.11337 6.64133 2.08102C6.18851 2.05945 5.88663 2.10258 5.66023 2.22119ZM7.23431 3.33179C7.63322 3.73074 7.644 4.1836 7.26665 4.62568C7.04024 4.89525 6.91087 4.95994 6.55508 4.95994C6.00523 4.95994 5.49851 4.49629 5.49851 3.98952C5.49851 3.49352 6.00523 3.01909 6.52274 3.01909C6.81383 3.01909 6.99712 3.10535 7.23431 3.33179ZM7.20196 6.0921C8.26932 6.41557 9.05636 7.46147 9.05636 8.5505V9.05728L6.55508 9.03572L4.04302 9.00337L4.0538 8.38877C4.07536 7.31052 4.83006 6.37244 5.9082 6.08132C6.56586 5.9088 6.55508 5.89802 7.20196 6.0921Z" fill=""/>
<path d="M13.4875 12.4538L12.5495 13.3703L12.183 12.9821C11.8919 12.691 11.7409 12.6155 11.4822 12.6371C11.2126 12.6586 11.1479 12.7233 11.1264 12.9713C11.094 13.2301 11.2019 13.3918 11.7301 13.9202C12.0751 14.2652 12.4525 14.5563 12.5603 14.5563C12.6573 14.5563 13.2503 14.0604 13.8649 13.4457C14.9969 12.3244 15.1802 11.9901 14.8567 11.6666C14.6196 11.4294 14.4255 11.5373 13.4875 12.4538Z" fill=""/>
</g>
</svg>
